<svg xmlns="http://www.w3.org/2000/svg" xmlns:xlink="http://www.w3.org/1999/xlink" aria-hidden="true" role="img" class="iconify iconify--simple-icons" width="32" height="32" preserveAspectRatio="xMidYMid meet" viewBox="0 0 24 24"><path fill="currentColor" d="M12 0C5.373 0 0 5.373 0 12s5.373 12 12 12s12-5.373 12-12S18.627 0 12 0zm0 2.16c5.42 0 9.84 4.42 9.84 9.84s-4.42 9.84-9.84 9.84S2.16 17.42 2.16 12S6.58 2.16 12 2.16zM9.13 6.337L6.73 17.59l2.595-2.28l-1.382-6.993l1.217.522l1.217-.521l-1.382 6.993l2.595 2.28L14.87 6.337l-1.137.486l-1.138.486l-1.137-.486l-1.137-.486l-1.188-.51z"></path></svg>